<?xml version="1.0" encoding="UTF-8"?>
<svg id="Camada_1" xmlns="http://www.w3.org/2000/svg" version="1.1" viewBox="0 0 100 150">
  <!-- Generator: Adobe Illustrator 29.5.0, SVG Export Plug-In . SVG Version: 2.1.0 Build 137)  -->
  <defs>
    <style>
      .st0 {
        fill: #9e8150;
      }

      .st1 {
        fill: #efd9aa;
      }

      .st2 {
        fill: #a98647;
      }
    </style>
  </defs>
  <path class="st2" d="M30.01,56.27c1.95.63,1.92,1.38,0,2.23-1.08,2.67-2.62,3.91-4.6,3.74,11.09,8.11,12.87,11.38,7.42,24.2,6.65-4.09,13.75-5.06,18.74,1.82,3.25-9.68,11.67-15.14,25.26-16.38-2.42-4.71,2.89-4.05,6.69-2.23,4.32-.63,18.76.93,13.37,8.88-1,1.48-27.82,7.28-30.2,11.15-2.55,4.13,3.86,26.4,1.22,33.45-5.93,6-19.86-22.65-26.1-24.2-7.34-1.83-23.29,14.46-30.67,13.05-9.92-1.9,9.39-24.71,11.08-29.1C26.53,71.61.85,62.14,1.5,55.11c.88-9.67,23.34.85,28.51,1.15Z"/>
  <path class="st0" d="M83.51,69.64c-.35.05-6.38,2.05-6.69,2.23-11.63,6.48-27.45-10.24-25.85-23.36l-5.97,8.64c.04,10.37-14.31,10.68-15,1.35v-2.23c2.29.13,6.47-1.3,8.26-2.89,3.38-2.94,15.86-30.16,19.58-28.29,8.28,4.17,3.24,29.92,6.68,35.67,3.06,5.12,15.42,3.03,18.99,8.88Z"/>
  <path class="st1" d="M30.01,58.5c2.78.51,9.35,3.26,11.15,2.21.2-.11-1.65-3.13-.84-4.44,4.97-8.07,8.52-13.26,13.26-22.22.73-1.37,1.71-8.72,5.41-4.5.37.42-2.8,7.38-3.13,10.84-1.91,20.42,2.17,23.24,20.96,31.48-.2.12.75,3.28-1.62,4.4-14.38,6.77-21.4.29-18.47,24.57-5.66-1.55-7.67-11.82-12.67-13.11-6.78-1.74-18.45,10.93-20.74,8.64-.81-4.88,3.74-7.35,5.31-11.13.73-1.76-.98-4.33-.69-5.26.65-2.06,5.72-.64,4.27-4.74-2.62-7.42-35.33-22.77-2.21-16.75Z"/>
</svg>